<mxfile host="app.diagrams.net" modified="2021-04-20T02:10:22.440Z" agent="5.0 (Macintosh; Intel Mac OS X 10_15_6) AppleWebKit/605.1.15 (KHTML, like Gecko) Version/14.0.3 Safari/605.1.15" etag="CvadrndLfipLQBm863UG" version="14.6.3" type="github">
  <diagram id="oU--rMGLtgW94v2ey7TK" name="Page-1">
    <mxGraphModel dx="945" dy="1848" grid="1" gridSize="10" guides="1" tooltips="1" connect="1" arrows="1" fold="1" page="1" pageScale="1" pageWidth="827" pageHeight="1169" math="0" shadow="0">
      <root>
        <mxCell id="0" />
        <mxCell id="1" parent="0" />
        <mxCell id="sM7u_IlNyiRZkttuZNEF-1" value="" style="rounded=0;whiteSpace=wrap;html=1;dashed=1;" vertex="1" parent="1">
          <mxGeometry x="80" y="-140" width="690" height="430" as="geometry" />
        </mxCell>
        <mxCell id="sM7u_IlNyiRZkttuZNEF-2" value="KMIP Core (KMIP Encoder&amp;amp;Decoder）" style="rounded=1;whiteSpace=wrap;html=1;" vertex="1" parent="1">
          <mxGeometry x="120" y="50" width="140" height="50" as="geometry" />
        </mxCell>
        <mxCell id="sM7u_IlNyiRZkttuZNEF-3" value="云密钥管理系统 SDK" style="text;html=1;strokeColor=none;fillColor=none;align=center;verticalAlign=middle;whiteSpace=wrap;rounded=0;" vertex="1" parent="1">
          <mxGeometry x="90" y="-130" width="200" height="20" as="geometry" />
        </mxCell>
        <mxCell id="sM7u_IlNyiRZkttuZNEF-4" value="HTTPS/TCP" style="rounded=1;whiteSpace=wrap;html=1;" vertex="1" parent="1">
          <mxGeometry x="280" y="190" width="160" height="50" as="geometry" />
        </mxCell>
        <mxCell id="sM7u_IlNyiRZkttuZNEF-5" value="JNI &amp;amp; C SDK API" style="rounded=1;whiteSpace=wrap;html=1;" vertex="1" parent="1">
          <mxGeometry x="120" y="-30" width="630" height="50" as="geometry" />
        </mxCell>
        <mxCell id="sM7u_IlNyiRZkttuZNEF-6" value="Jsoncpp" style="rounded=1;whiteSpace=wrap;html=1;" vertex="1" parent="1">
          <mxGeometry x="460" y="50" width="70" height="50" as="geometry" />
        </mxCell>
        <mxCell id="sM7u_IlNyiRZkttuZNEF-7" value="curl" style="rounded=1;whiteSpace=wrap;html=1;" vertex="1" parent="1">
          <mxGeometry x="280" y="50" width="160" height="50" as="geometry" />
        </mxCell>
        <mxCell id="sM7u_IlNyiRZkttuZNEF-8" value="openssl" style="rounded=1;whiteSpace=wrap;html=1;" vertex="1" parent="1">
          <mxGeometry x="280" y="120" width="160" height="50" as="geometry" />
        </mxCell>
        <mxCell id="sM7u_IlNyiRZkttuZNEF-9" value="glog" style="rounded=1;whiteSpace=wrap;html=1;" vertex="1" parent="1">
          <mxGeometry x="540" y="50" width="60" height="50" as="geometry" />
        </mxCell>
        <mxCell id="sM7u_IlNyiRZkttuZNEF-10" value="libiconv" style="rounded=1;whiteSpace=wrap;html=1;" vertex="1" parent="1">
          <mxGeometry x="610" y="50" width="60" height="50" as="geometry" />
        </mxCell>
        <mxCell id="sM7u_IlNyiRZkttuZNEF-11" value="zlib" style="rounded=1;whiteSpace=wrap;html=1;" vertex="1" parent="1">
          <mxGeometry x="690" y="50" width="60" height="50" as="geometry" />
        </mxCell>
        <mxCell id="sM7u_IlNyiRZkttuZNEF-12" value="Java SDK API" style="rounded=1;whiteSpace=wrap;html=1;" vertex="1" parent="1">
          <mxGeometry x="120" y="-100" width="630" height="50" as="geometry" />
        </mxCell>
      </root>
    </mxGraphModel>
  </diagram>
</mxfile>
